<?xml version="1.0" standalone="no"?>
<!DOCTYPE svg PUBLIC "-//W3C//DTD SVG 20010904//EN"
 "http://www.w3.org/TR/2001/REC-SVG-20010904/DTD/svg10.dtd">
<svg version="1.0" xmlns="http://www.w3.org/2000/svg"
 width="512.000000pt" height="512.000000pt" viewBox="0 0 512.000000 512.000000"
 preserveAspectRatio="xMidYMid meet">
<metadata>
Created by potrace 1.11, written by Peter Selinger 2001-2013
</metadata>
<g transform="translate(0.000000,512.000000) scale(0.100000,-0.100000)"
fill="#000000" stroke="none">
<path d="M4335 5093 c-289 -49 -572 -145 -835 -285 -479 -253 -827 -638 -1042
-1153 -9 -22 -24 -58 -33 -80 -47 -111 -145 -458 -145 -510 0 -9 -33 -62 -74
-118 -96 -133 -208 -306 -280 -434 l-58 -103 -479 0 -479 0 0 -150 0 -150 150
0 150 0 0 -193 0 -192 -300 -300 -300 -300 0 -562 0 -563 1350 0 1350 0 0 563
0 562 -300 300 -300 300 0 192 0 193 150 0 150 0 0 150 0 150 -395 0 c-217 0
-395 2 -395 5 0 13 184 297 227 350 4 6 21 28 38 50 50 68 68 82 120 94 82 19
213 60 330 103 108 39 375 167 432 206 15 10 58 38 96 62 l67 42 0 144 0 144
168 0 168 0 70 88 c38 48 81 103 95 122 96 131 227 376 289 540 11 30 25 64
30 75 13 30 66 199 88 285 17 64 29 127 67 365 6 39 7 39 -170 8z"/>
</g>
</svg>
